Coordinates
version=1
nRows=16
nColumns=33
inDegrees=yes

Units are S.I. units (second, meters, Newtons, ...)
Angles are in degrees.

endheader
time	ground_thorax_rot_x	ground_thorax_rot_y	ground_thorax_rot_z	ground_thorax_tx	ground_thorax_ty	ground_thorax_tz	clav_prot_r	clav_elev_r	scapula_abduction_r	scapula_elevation_r	scapula_upward_rot_r	scapula_winging_r	shoulder_elv_r	plane_of_elev_r	axial_rot_r	elbow_flexion_r	pro_sup_r	wrist_flex_r	wrist_dev_r	clav_prot_l	clav_elev_l	scapula_abduction_l	scapula_elevation_l	scapula_upward_rot_l	scapula_winging_l	shoulder_elv_l	plane_of_elev_l	axial_rot_l	elbow_flexion_l	pro_sup_l	wrist_flex_l	wrist_dev_l
      5.17000000	     -0.25750136	      2.18461915	     11.03989882	     -0.10332745	      1.03167671	      0.01249361	      8.91007948	     -7.01141238	     16.31367913	     -0.93988927	      1.80108751	     -4.45599566	    -57.41629796	    -72.14396012	     85.64506759	    -57.77412111	   -130.05944721	     44.67376540	    -24.99999983	      8.73869040	     -0.40659889	    -10.29173301	    -22.27182439	    -36.73706642	     -2.57904145	     54.28991933	    -38.38797492	      0.33724008	     57.94975310	     28.34049613	     -1.74661703	    -24.99999983
      5.18000000	     -1.12373367	      2.12127144	     11.02970779	     -0.10262896	      1.03169297	      0.01182575	      8.52807132	     -8.89219489	     15.13707744	     -2.08513862	      0.47084320	     -3.26769947	    -56.41659726	    -72.38837194	     85.63899591	    -57.07869601	   -131.36843818	     48.29984249	    -24.99999983	      8.25200372	      0.90681064	     -9.10325766	    -23.33211302	    -36.13575393	     -3.15908247	     54.79650946	    -37.65736838	      0.00290036	     57.36071298	     29.35001901	     -1.87720230	    -24.99999983
      5.19000000	     -1.11108068	      2.11105997	     11.08563419	     -0.10268805	      1.03113821	      0.01182860	      8.51833092	     -8.93015743	     15.12215172	     -2.11879067	      0.46908361	     -3.24800848	    -56.43385239	    -72.33232445	     85.67913572	    -57.05261768	   -131.37461106	     48.30103368	    -24.99999983	      8.23492366	      0.84452576	     -9.08431796	    -23.27664762	    -36.14982520	     -3.15871811	     54.74853482	    -37.59414332	     -0.03259942	     57.35256884	     29.35538758	     -1.87621876	    -24.99999983
      5.20000000	     -1.02769275	      2.12695659	     11.12468952	     -0.10275893	      1.03151932	      0.01184969	      8.48644813	     -9.11744802	     15.10095632	     -2.30968949	      0.51771223	     -3.17406376	    -56.20189880	    -72.28602531	     85.68679190	    -56.62348567	   -131.50150728	     48.26554640	    -24.99999983	      8.24054839	      0.55387141	     -9.13382719	    -22.97526866	    -36.13430182	     -3.08423386	     54.72842669	    -37.41257133	     -0.15915429	     56.85184951	     29.42601514	     -1.89549266	    -24.99999983
      5.21000000	     -1.03354145	      2.11268074	     11.21747729	     -0.10269457	      1.03119590	      0.01185305	      8.47112617	     -9.15860816	     15.09709686	     -2.36391488	      0.55733233	     -3.15742206	    -56.19899551	    -72.21478501	     85.72631234	    -56.66724071	   -131.51149333	     48.27871416	    -24.99999983	      8.22951008	      0.49939858	     -9.11942944	    -22.91797506	    -36.12815010	     -3.08182721	     54.70435506	    -37.33676597	     -0.17696156	     56.88077271	     29.42644424	     -1.90509425	    -24.99999983
      5.22000000	     -1.05469830	      2.10758894	     11.03421544	     -0.10276684	      1.03109825	      0.01190401	      8.44847455	     -9.31944818	     15.14507594	     -2.57894595	      0.72266063	     -3.12461695	    -55.98871096	    -72.08265810	     85.84792596	    -56.85066145	   -131.64933085	     48.37439397	    -24.99999983	      8.28756351	      0.33516598	     -9.23605675	    -22.71408664	    -36.05639322	     -2.98983165	     54.80330837	    -37.16302032	     -0.25949802	     56.81005322	     29.45208701	     -2.02398058	    -24.99999983
      5.23000000	     -1.05976155	      2.08221754	     11.14511552	     -0.10249943	      1.03103589	      0.01196316	      8.43541539	     -9.36145721	     15.14391317	     -2.63678958	      0.76803486	     -3.10926031	    -55.97511900	    -72.02587835	     85.88100845	    -56.89349441	   -131.66084730	     48.38707842	    -24.99999983	      8.28227761	      0.28297724	     -9.22909313	    -22.66231695	    -36.05583590	     -2.98909467	     54.77302881	    -37.08469658	     -0.29332055	     56.84496674	     29.45213124	     -2.03643744	    -24.99999983
      5.24000000	     -1.06767085	      1.96295886	     11.15211502	     -0.10229607	      1.03101130	      0.01207847	      8.42099469	     -9.43978332	     15.17690061	     -2.76000474	      0.88497167	     -3.09272088	    -55.89363223	    -71.98030038	     85.94468524	    -57.05627343	   -131.71114295	     48.43758458	    -24.99999983	      8.32238062	      0.22252804	     -9.31652290	    -22.60798611	    -36.06788079	     -2.94536093	     54.76797322	    -37.01295053	     -0.42144343	     56.84683503	     29.46015767	     -2.08010962	    -24.99999983
      5.25000000	     -1.08350502	      1.97029516	     11.24651091	     -0.10204073	      1.03093531	      0.01192655	      8.41509616	     -9.46695544	     15.20121852	     -2.80516558	      0.94152103	     -3.09725674	    -55.86368101	    -71.98220160	     85.95171433	    -57.11390394	   -131.72137490	     48.44821558	    -24.99999983	      8.32986588	      0.20359079	     -9.32914077	    -22.57603186	    -36.04659433	     -2.93517559	     54.78042008	    -36.96522670	     -0.43864174	     56.86505134	     29.45856373	     -2.08832799	    -24.99999983
      5.26000000	     -1.06241572	      2.36999671	     11.03758680	     -0.10223939	      1.03137372	      0.01228642	      7.85018969	     -9.73239525	     13.88842264	     -2.74343038	      0.19801895	     -2.45704771	    -53.21919781	    -72.41030831	     88.50574848	    -57.42000370	   -134.26231953	     50.07912615	    -24.99999983	      9.01756414	     -0.78325093	    -10.94362345	    -22.10797457	    -37.21214524	     -2.34216992	     55.49459326	    -36.95691639	     -1.04915064	     57.06881471	     28.67696414	     -5.57405951	    -24.99999983
      5.27000000	     -1.08198241	      2.23462392	     11.02505319	     -0.10190703	      1.03137365	      0.01229487	      7.84666909	     -9.77766762	     13.93684908	     -2.82884253	      0.30565972	     -2.46116791	    -53.16603348	    -72.45564621	     88.55637397	    -57.56045051	   -134.26430671	     50.10498629	    -24.99999983	      9.06770862	     -0.74628966	    -11.03481453	    -22.14314086	    -37.21347901	     -2.30888109	     55.46648155	    -36.89737659	     -1.18048520	     56.99455130	     28.68873340	     -5.56132872	    -24.99999983
      5.28000000	     -1.09885731	      2.18968798	     10.90404058	     -0.10169243	      1.03125571	      0.01213932	      7.90027743	     -9.84721921	     14.06969449	     -2.92581400	      0.38485010	     -2.49024365	    -53.16029787	    -72.64038954	     88.75887294	    -57.86202580	   -134.26606779	     50.17724094	    -24.99999983	      9.18471286	     -0.67471932	    -11.22786432	    -22.18928081	    -37.17514345	     -2.22954932	     55.46206797	    -36.72556176	     -1.43602463	     56.98294883	     28.67796120	     -5.55772423	    -24.99999983
      5.29000000	     -1.11544795	      2.07581555	     10.87838110	     -0.10114321	      1.03123372	      0.01209340	      7.88943422	     -9.85192224	     14.09853002	     -2.96669329	      0.47168023	     -2.50498920	    -53.09975194	    -72.70381179	     88.77685821	    -57.99450725	   -134.28295863	     50.20067080	    -24.99999983	      9.23287418	     -0.63318859	    -11.32076349	    -22.24033418	    -37.20106112	     -2.20124807	     55.45256450	    -36.73531521	     -1.53887314	     56.99387093	     28.66896694	     -5.55695590	    -24.99999983
      5.30000000	     -1.14014007	      2.00754435	     10.74411387	     -0.10096590	      1.03096831	      0.01201747	      7.94762264	     -9.87039121	     14.22363429	     -3.00976857	      0.53649059	     -2.54593954	    -53.13869380	    -72.96818939	     89.03826686	    -58.39068263	   -134.31758735	     50.29199503	    -24.99999983	      9.38665826	     -0.55727767	    -11.58846614	    -22.31236421	    -37.21200610	     -2.10635553	     55.49198413	    -36.65013866	     -1.81727721	     57.21602985	     28.60023682	     -5.57764531	    -24.99999983
      5.31000000	     -1.15573713	      1.93887537	     10.67922575	     -0.10060546	      1.03064798	      0.01190546	      7.95413522	     -9.81436260	     14.25937435	     -2.98040060	      0.59012310	     -2.58816756	    -53.13261000	    -73.18051149	     89.27723151	    -58.77904457	   -134.40056478	     50.36696064	    -24.99999983	      9.52349201	     -0.48433346	    -11.84611534	    -22.41054950	    -37.28325471	     -2.01574089	     55.54116286	    -36.64016257	     -2.01775967	     57.52427438	     28.48023900	     -5.62055821	    -24.99999983
      5.32000000	     -1.18310946	      1.88205701	     10.63011915	     -0.10023311	      1.03041328	      0.01180167	      7.94902844	     -9.73214712	     14.27260659	     -2.92895049	      0.64626177	     -2.62738135	    -53.13139701	    -73.39099391	     89.54604410	    -59.16653293	   -134.51648490	     50.42685228	    -24.99999983	      9.66655740	     -0.43553711	    -12.12188390	    -22.49638802	    -37.38011555	     -1.92441276	     55.62547315	    -36.65232540	     -2.16406173	     57.89908938	     28.32277455	     -5.68068540	    -24.99999983
